<?xml version="1.0" encoding="utf-8"?>
<!-- Generator: Adobe Illustrator 15.1.0, SVG Export Plug-In . SVG Version: 6.00 Build 0)  -->
<!DOCTYPE svg PUBLIC "-//W3C//DTD SVG 1.1//EN" "http://www.w3.org/Graphics/SVG/1.1/DTD/svg11.dtd">
<svg version="1.1" id="Layer_1" xmlns="http://www.w3.org/2000/svg" xmlns:xlink="http://www.w3.org/1999/xlink" x="0px" y="0px"
	 width="2688px" height="1893.03px" viewBox="0 0 2688 1893.03" enable-background="new 0 0 2688 1893.03" xml:space="preserve">
<g>
	<path fill="#FFFFFF" d="M178.53,272.69c-4.02,177.55-6.03,270.59-6.03,279.1c0,8.52,1.56,15.58,4.69,21.18
		c3.12,5.61,10.06,8.41,20.78,8.41l26.15-2.02l2.68,4.71l-6.03,43.04c-45.15-1.35-77.33-2.02-96.55-2.02l-93.19,2.02l6.03-43.04
		c19.21-3.13,31.85-8.07,37.88-14.8c6.03-6.73,9.05-19.5,9.05-38.33l0.67-258.92c0-13.89-1.57-23.2-4.69-27.91
		c-3.13-4.71-9.62-7.06-19.44-7.06l-20.78,0.67l-3.35-5.38l5.36-40.35c47.37,0.9,77.54,1.34,90.51,1.34l92.52-4.71l-4.02,45.06
		c-16.54,3.59-27.6,7.85-33.19,12.78C181.98,251.4,178.97,260.14,178.53,272.69z M303.23,257.22c0-12.55-11.85-19.5-35.53-20.85
		l-2.01-4.71l5.36-41.7c37.55,2.25,65.47,3.36,83.81,3.36l78.44-2.69l4.69,7.4l-5.36,38.33c-13.86,5.83-27.15,14.24-39.89,25.22
		c-12.74,10.99-28.73,28.14-47.94,51.45l-69.06,78.01l88.5,135.85c13.41,20.18,25.81,34.75,37.21,43.71
		c11.4,8.97,24.47,13.9,39.22,14.8l4.02,6.05l-5.36,35.64c-44.25,5.38-70.4,8.07-78.44,8.07c-26.38,0-51.19-18.83-74.42-56.49
		L185.23,412.57l2.01-14.8l98.56-107.6C297.42,278.52,303.23,267.54,303.23,257.22z"/>
	<path fill="#FFFFFF" d="M673.66,583.39c4.69-1.79,7.04-4.93,7.04-9.42c0-5.82-4.02-23.09-12.07-51.78
		c-9.39-0.44-21.35-0.67-35.87-0.67c-14.53,0-35.43,0.9-62.69,2.69c-9.84,27.8-14.75,44.28-14.75,49.43c0,5.16,1.56,8.74,4.69,10.76
		c3.12,2.02,9.39,3.03,18.77,3.03h20.78l4.02,4.71l-4.69,35.64c-31.29-1.8-58.56-2.69-81.8-2.69l-68.39,1.35l4.02-38.33
		c14.75-2.69,25.92-13.67,33.52-32.95l95.88-264.3l102.58-8.74l6.7,4.04c33.52,125.54,59,214.31,76.43,266.32
		c3.57,12.11,8.38,20.85,14.42,26.23c6.03,5.38,14.85,8.52,26.48,9.42l2.01,4.71l-4.02,33.63c-29.5-0.9-52.75-1.35-69.73-1.35
		l-97.22,4.04l-3.35-4.04l2.68-36.32C657.45,586.99,668.96,585.19,673.66,583.39z M620.36,472.43c10.28,0,23.02-0.44,38.22-1.35
		L629.74,362.8h-8.72l-36.2,109.62H620.36z"/>
	<path fill="#FFFFFF" d="M936.14,538.33V335.9c-24.59,0.45-40.46,4.6-47.6,12.44c-7.15,7.85-12.52,27.02-16.09,57.5l-51.63,3.36
		c3.12-44.39,5.13-84.51,6.03-120.38l6.03-6.73l58.33,6.05h172.98l58.33-6.05l6.7,6.73l4.69,117.02l-51.62,3.36
		c-4.02-33.17-9.17-53.47-15.42-60.86c-6.26-7.4-21.01-11.54-44.25-12.44c-3.58,65.47-5.36,136.97-5.36,214.53
		c0,13.01,2.23,22.19,6.7,27.57c4.46,5.38,12.29,8.07,23.47,8.07l28.83-1.35l2.68,2.69l-5.36,40.35c-47.38-1.8-80.69-2.69-99.9-2.69
		l-97.22,4.04l4.02-39.68c24.14-1.79,39.44-5.72,45.93-11.77C932.89,571.62,936.14,558.51,936.14,538.33z"/>
	<path fill="#FFFFFF" d="M1499.98,551.78c0,13.45,1.56,22.65,4.69,27.57c3.12,4.94,9.16,7.4,18.1,7.4l18.77-1.34l3.35,4.71
		l-5.36,36.32c-30.84-0.9-58.78-1.35-83.81-1.35l-80.45,0.67l4.69-37.66c14.75-0.44,24.81-3.8,30.17-10.09
		c5.36-6.27,8.05-18.16,8.05-35.64v-62.54c-22.8-0.44-40.23-0.67-52.3-0.67l-74.42,5.38l-0.67,67.25c0,14.35,1.34,23.87,4.02,28.58
		c2.68,4.71,8.27,7.06,16.76,7.06l18.1-1.35l3.35,4.04l-4.69,36.32c-34.42-0.9-57.77-1.35-70.06-1.35c-12.3,0-25.71,0.34-40.23,1.01
		c-14.53,0.67-26.71,1.23-36.54,1.68c-9.84,0.44-14.98,0.89-15.42,1.35l4.02-37.66c15.64-2.69,26.03-6.95,31.18-12.78
		c5.13-5.82,7.71-16.14,7.71-30.94V353.39c0-11.2-1.34-18.6-4.02-22.19c-2.68-3.58-7.83-5.38-15.42-5.38l-16.09,0.67l-4.02-5.38
		l4.69-33.63c29.94,0.45,52.52,0.67,67.72,0.67l89.84-3.36l-3.35,39.01c-13.41,1.8-21.9,4.71-25.48,8.74
		c-3.58,4.04-5.81,12.56-6.7,25.56l-3.35,70.62l65.03,1.34c24.58,0,44.69-1.11,60.34-3.36l0.67-73.31c0-11.2-1.34-18.6-4.02-22.19
		c-2.68-3.58-8.05-5.38-16.09-5.38l-16.76,0.67l-3.35-5.38l4.69-33.63c0,0.45,25.03,0.67,75.09,0.67l85.15-3.36l-3.35,38.33
		c-13.41,1.8-22.24,4.49-26.48,8.07c-4.25,3.59-6.6,10.54-7.04,20.85C1502.22,411.68,1499.98,478.26,1499.98,551.78z"/>
	<path fill="#FFFFFF" d="M1632.73,546.4V350.7c0-9.86-1.12-16.48-3.35-19.84c-2.24-3.36-6.49-5.04-12.74-5.04l-19.44,0.67
		l-4.02-4.04l5.36-34.97c33.07,0.45,56.99,0.67,71.74,0.67l88.5-2.69c44.69,0,78.66,7.97,101.91,23.87
		c23.24,15.92,34.86,38.9,34.86,68.93c0,42.15-23.92,75.32-71.74,99.53l44.25,67.25c19.66,30.49,39.56,45.73,59.67,45.73l4.69,6.05
		l-4.69,30.94l-70.4,5.38c-25.93,0-46.26-16.14-61.01-48.42l-44.25-87.43h-36.88l-0.67,51.11c0,17.04,2.12,27.69,6.37,31.94
		c4.24,4.27,15.3,6.62,33.19,7.06l2.01,3.36l-5.36,36.32c0-0.9-25.93-1.35-77.77-1.35l-83.14,3.36l4.69-39.68
		c14.75-2.24,24.81-6.27,30.17-12.11C1630.05,571.52,1632.73,561.2,1632.73,546.4z M1808.39,388.36c0-34.97-25.93-52.46-77.77-52.46
		c-3.58,0-6.03,0.9-7.38,2.69c-2.68,2.69-4.92,37.89-6.7,105.59l47.6,5.38C1793.64,437.91,1808.39,417.51,1808.39,388.36z"/>
	<path fill="#FFFFFF" d="M2137.58,286.81l77.1,2.02l58.33-2.02l2.01,4.04l-4.02,35.64c-13.86,4.94-25.48,12.44-34.86,22.53
		s-19.67,24.78-30.84,44.05l-52.3,94.15c-6.26,12.56-9.39,34.3-9.39,65.23c0,1.34,0,4.94,0,10.76c0,5.83,1.9,11.1,5.7,15.8
		c3.79,4.71,10.61,7.06,20.45,7.06l28.16-1.35l1.34,2.69l-4.69,40.35c-45.15-1.8-77.55-2.69-97.22-2.69l-92.52,5.38l4.02-39.68
		c21.89-2.24,35.97-6.27,42.24-12.11c6.25-5.82,9.39-17.49,9.39-34.97v-13.45c0-15.24-5.14-32.5-15.42-51.78l-55.65-100.88
		c-8.05-14.8-16.32-25.78-24.81-32.95c-8.5-7.17-20.34-12.78-35.53-16.81l-2.01-2.69l4.69-37.66c35.3,0.9,60.11,1.35,74.42,1.35
		l91.18-4.04l3.35,5.38l-4.02,33.63c-20.11,0.45-30.17,5.61-30.17,15.47c0,4.94,6.81,21.52,20.45,49.77
		c13.63,28.25,21.12,44.17,22.46,47.75h6.03l38.22-77.34c5.36-10.76,8.05-18.83,8.05-24.21c0-7.17-8.95-10.98-26.82-11.43
		l-1.34-2.69L2137.58,286.81z"/>
	<path fill="#FFFFFF" d="M2538.5,325.82h-18.1l-2.68-4.04l4.02-35.64c33.52,1.35,66.04,2.02,97.55,2.02s47.27-0.89,47.27-2.69
		l-2.68,39.01c-12.52,1.8-21.35,5.16-26.48,10.09c-5.14,4.94-7.94,12.56-8.38,22.87l-7.38,272.37l-69.06,6.73
		c-47.38-70.84-97.45-141.67-150.18-212.52h-6.03v139.21c0.44,9.42,2.12,15.92,5.03,19.5c2.9,3.59,7.93,5.38,15.09,5.38l22.12-1.35
		l4.02,3.36l-6.04,36.99c-33.97-1.35-58.78-2.02-74.42-2.02l-72.41,4.04l4.69-39.01c11.17-1.35,19.21-4.48,24.14-9.42
		c4.91-4.93,7.6-12.78,8.04-23.54l7.38-199.07c0-11.2-2.91-18.94-8.71-23.2c-5.81-4.26-17.66-7.5-35.54-9.75l-4.69-5.38l4.02-34.3
		c25.03,1.8,47.82,2.69,68.39,2.69l57.66-2.02c42.46,65.91,88.27,132.27,137.44,199.07h6.03l-2.01-136.52
		c-0.45-8.51-2.01-14.46-4.69-17.82C2549.23,327.5,2544.76,325.82,2538.5,325.82z"/>
</g>
<g>
	<path fill="#FFFFFF" d="M414.09,979.2c0,54.47-16.54,98.3-49.61,131.48c-33.08,33.18-76.1,49.77-129.06,49.77
		c-52.97,0-93.64-14.68-122.02-44.05c-28.39-29.36-42.57-71.17-42.57-125.43c0-54.24,16.31-97.74,48.94-130.47
		c32.62-32.72,75.76-49.09,129.4-49.09s94.53,14.35,122.69,43.04C400.01,883.14,414.09,924.72,414.09,979.2z M244.47,1108.66
		c23.24,0,41.23-8.74,53.97-26.23c12.74-17.49,19.11-43.26,19.11-77.34c0-91.01-26.6-136.52-79.78-136.52
		c-46.93,0-70.4,34.3-70.4,102.9C167.36,1062.93,193.06,1108.66,244.47,1108.66z"/>
	<path fill="#FFFFFF" d="M499.91,1075.7V880c0-9.86-1.12-16.48-3.35-19.84c-2.24-3.36-6.48-5.04-12.74-5.04l-19.44,0.67l-4.02-4.04
		l5.36-34.97c33.07,0.45,56.99,0.67,71.74,0.67l88.5-2.69c44.69,0,78.66,7.97,101.91,23.87c23.24,15.92,34.86,38.9,34.86,68.93
		c0,42.15-23.92,75.32-71.74,99.53l44.25,67.25c19.66,30.49,39.56,45.73,59.67,45.73l4.69,6.05l-4.69,30.94l-70.4,5.38
		c-25.93,0-46.26-16.14-61.01-48.42l-44.25-87.43h-36.88l-0.67,51.11c0,17.04,2.12,27.69,6.37,31.94
		c4.24,4.27,15.31,6.62,33.19,7.06l2.01,3.36l-5.36,36.32c0-0.9-25.93-1.35-77.77-1.35l-83.14,3.36l4.69-39.68
		c14.75-2.24,24.81-6.27,30.17-12.11C497.22,1100.82,499.91,1090.5,499.91,1075.7z M675.57,917.66c0-34.97-25.93-52.46-77.77-52.46
		c-3.58,0-6.03,0.9-7.38,2.69c-2.68,2.69-4.92,37.89-6.7,105.59l47.6,5.38C660.82,967.21,675.57,946.81,675.57,917.66z"/>
	<path fill="#FFFFFF" d="M1018.17,816.11l77.1,2.02l58.33-2.02l2.01,4.04l-4.02,35.64c-13.86,4.94-25.48,12.44-34.86,22.53
		c-9.39,10.09-19.67,24.78-30.84,44.05l-52.3,94.15c-6.26,12.56-9.39,34.3-9.39,65.23c0,1.34,0,4.94,0,10.76
		c0,5.83,1.9,11.1,5.7,15.8c3.79,4.71,10.61,7.06,20.45,7.06l28.16-1.35l1.34,2.69l-4.69,40.35c-45.15-1.8-77.55-2.69-97.22-2.69
		l-92.52,5.38l4.02-39.68c21.9-2.24,35.97-6.27,42.24-12.11c6.25-5.82,9.39-17.49,9.39-34.97v-13.45c0-15.24-5.14-32.5-15.42-51.78
		L869.99,906.9c-8.05-14.8-16.32-25.78-24.81-32.95c-8.5-7.17-20.34-12.78-35.53-16.81l-2.01-2.69l4.69-37.66
		c35.3,0.9,60.11,1.35,74.42,1.35l91.18-4.04l3.35,5.38l-4.02,33.63c-20.11,0.45-30.17,5.61-30.17,15.47
		c0,4.94,6.81,21.52,20.45,49.77c13.63,28.25,21.12,44.17,22.46,47.75h6.03l38.22-77.34c5.36-10.76,8.05-18.83,8.05-24.21
		c0-7.17-8.95-10.98-26.82-11.43l-1.34-2.69L1018.17,816.11z"/>
	<path fill="#FFFFFF" d="M1223.99,1075.7V884.03c0-11.2-1.12-18.72-3.35-22.53c-2.24-3.8-6.48-5.72-12.74-5.72l-18.1,1.35
		l-4.02-5.38l4.69-35.64c34.86,0.9,59.44,1.34,73.75,1.34l88.5-2.69c56.76,0,100.67,13.68,131.75,41.02
		c31.06,27.35,46.6,67.59,46.6,120.72s-17.77,97.07-53.3,131.81c-35.53,34.75-81.91,52.12-139.12,52.12
		c-34.42-4.04-62.58-6.05-84.48-6.05l-72.41,5.38l3.35-40.35c15.19-2.24,25.48-6.49,30.84-12.78
		C1221.3,1100.37,1223.99,1090.06,1223.99,1075.7z M1325.9,866.55c-5.36,0-9.05,0.9-11.06,2.69c-2.01,1.8-3.25,5.38-3.69,10.76
		c-4.47,84.3-6.7,149.3-6.7,195.03c0,13.45,2.68,22.53,8.05,27.24s15.86,7.06,31.51,7.06c60.34,0,90.51-40.12,90.51-120.38
		c0-43.48-8.61-74.76-25.81-93.82C1391.49,876.08,1363.88,866.55,1325.9,866.55z"/>
	<path fill="#FFFFFF" d="M1855.55,1145.65l-10.06,10.09l-222.59-2.69l-42.91,4.04l-14.75-25.56l189.74-270.35l-63.02,4.71
		c-22.8,2.69-38.11,8.19-45.93,16.48c-7.83,8.3-12.4,24.11-13.74,47.41l-52.97,3.36c4.91-45.28,7.81-84.29,8.72-117.02l6.03-5.38
		l98.56,6.05l166.94,1.35l11.4,23.54c-66.16,82.05-131.41,171.72-195.77,269.01l79.11-6.73c18.32-2.24,32.29-9.42,41.9-21.52
		c9.61-12.11,16.43-31.16,20.45-57.16l52.3-4.71C1861.36,1069.43,1856.89,1111.13,1855.55,1145.65z"/>
	<path fill="#FFFFFF" d="M2080.15,1107.31c40.23,0,60.34-20.4,60.34-61.2l-1.34-162.75c-0.45-11.2-1.79-18.71-4.02-22.53
		c-2.24-3.8-6.48-5.72-12.74-5.72l-17.43,0.67l-1.34-2.02l5.36-37.66c29.5,0.9,51.18,1.34,65.03,1.34l69.06-2.69l-3.35,39.01
		c-13.41,3.14-21.91,6.17-25.48,9.08c-3.58,2.92-5.36,8.41-5.36,16.48v157.37c0,40.35-12.3,71.07-36.88,92.14
		c-24.59,21.08-59.57,31.61-104.93,31.61c-45.37,0-78.67-9.18-99.9-27.57c-21.24-18.38-31.85-46.62-31.85-84.74V883.36
		c0-11.65-1.24-19.27-3.69-22.87c-2.46-3.58-7.27-5.38-14.42-5.38l-16.76,0.67l-1.34-2.02l5.36-37.66
		c32.62,0.9,60.56,1.34,83.81,1.34l67.72-2.69l-4.02,39.68c-11.18,0.9-18.89,3.36-23.13,7.4c-4.25,4.04-6.6,10.54-7.04,19.5
		l-4.02,152.66c0,22.87,5.36,40.8,16.09,53.8C2044.62,1100.82,2060.04,1107.31,2080.15,1107.31z"/>
	<path fill="#FFFFFF" d="M2322.18,1077.05V882.69c0-11.2-1.34-18.6-4.02-22.19c-2.68-3.58-7.82-5.38-15.42-5.38l-16.09,0.67
		l-4.02-5.38l4.69-33.63c42.46,0.45,68.61,0.67,78.44,0.67l80.46-3.36l-2.68,39.01c-13.86,2.69-23.03,5.95-27.49,9.75
		c-4.47,3.81-6.93,10.42-7.38,19.84c-3.13,134.96-4.69,205.46-4.69,211.51s1.34,11.33,4.02,15.8c2.68,4.49,8.27,6.73,16.76,6.73
		l20.11-1.35l2.68,4.04l-4.69,36.32c-39.34-0.9-67.04-1.35-83.14-1.35l-80.46,1.35l4.69-36.32c15.64-2.69,25.92-6.61,30.84-11.77
		C2319.72,1102.5,2322.18,1092.3,2322.18,1077.05z M2505.22,871.26c0-10.31-9.17-15.69-27.49-16.14l-2.01-4.71l4.69-34.97
		c32.18,1.35,55.87,2.02,71.07,2.02l69.06-2.02l4.02,6.05l-4.69,32.95c-20.56,8.97-45.37,30.72-74.42,65.23l-48.94,51.11
		l67.72,102.22c10.73,15.7,20.45,27.02,29.17,33.96c8.71,6.96,19.11,11.1,31.18,12.44l4.69,6.05l-4.69,30.94
		c-39.34,4.04-62.58,6.05-69.73,6.05c-22.79,0-43.36-14.56-61.68-43.71l-79.79-129.8l2.01-12.78l76.43-80.03
		C2500.74,888.07,2505.22,879.78,2505.22,871.26z"/>
</g>
<g>
	<rect x="18.67" y="1587.9" fill="none" width="2619.56" height="305.13"/>
	<path fill="#FFFFFF" d="M223.53,1757.37c-17.92-0.67-30.47-1.01-37.63-1.01c-13.22,0-26.1,1.01-38.64,3.03l1.68-13.79
		c8.51-1.57,14.16-3.87,16.97-6.89c2.8-3.03,4.2-8.35,4.2-15.97l0.34-106.6c0-5.6-0.67-9.36-2.02-11.26
		c-1.34-1.9-4.03-2.86-8.06-2.86l-9.07,0.34l-0.67-1.34l2.02-12.78c15.9,0.45,35.45,0.67,58.63,0.67s43.18-1.01,59.98-3.03
		l1.34,1.68c-3.14,14.35-5.27,29.59-6.38,45.73l-16.13,1.01c0.45-5.38,0.67-9.19,0.67-11.43c0-8.07-1.91-13.11-5.71-15.13
		c-3.81-2.02-11.71-3.03-23.69-3.03c-11.99,0-18.87,0.5-20.66,1.51c-1.8,1.01-2.8,3.76-3.02,8.24l-2.35,52.12l27.89,0.34l28.9-2.69
		l1.34,1.68l-3.7,17.82c-13.89-0.45-24.53-0.67-31.92-0.67c-7.39,0-15.01,0.56-22.85,1.68l-1.01,39.68c0,6.95,0.78,11.6,2.35,13.96
		c1.56,2.35,4.81,3.53,9.74,3.53l18.82-1.01l1.01,1.68L223.53,1757.37z"/>
	<path fill="#FFFFFF" d="M455.03,1668.43c0,25.45-8.74,46.97-26.21,64.56c-17.47,17.6-38.53,26.4-63.17,26.4
		c-24.64,0-44.07-7.45-58.3-22.36c-14.23-14.91-21.34-35.08-21.34-60.53c0-25.44,8.62-46.91,25.87-64.39
		c17.25-17.49,38.25-26.23,63-26.23c24.75,0,44.29,7.4,58.63,22.19C447.86,1622.87,455.03,1642.99,455.03,1668.43z M314.58,1671.12
		c0,20.96,5.21,38.22,15.62,51.78c10.42,13.57,23.97,20.34,40.66,20.34c16.68,0,30.07-5.88,40.15-17.65
		c10.08-11.77,15.12-28.13,15.12-49.09c0-20.96-5.38-38.17-16.13-51.62c-10.75-13.45-24.48-20.18-41.16-20.18
		c-16.69,0-29.9,5.83-39.65,17.49C319.46,1633.85,314.58,1650.16,314.58,1671.12z"/>
	<path fill="#FFFFFF" d="M595.48,1599.16c10.3,7.51,15.46,17.1,15.46,28.75c0,23.09-13.22,40.58-39.65,52.46l28.56,43.04
		c5.38,8.07,10.53,13.79,15.46,17.15c4.92,3.36,10.86,5.04,17.81,5.04l1.34,1.68l-1.68,10.42l-25.87,2.69
		c-10.53,0-20.28-8.18-29.23-24.55l-28.22-49.43H527.6l-0.67,35.98c0,9.19,1.06,14.96,3.19,17.32c2.13,2.35,7.67,3.65,16.63,3.87
		l0.67,1.01l-2.69,12.78c0-0.45-10.31-0.67-30.91-0.67l-33.6,1.01l2.35-13.79c8.28-1.12,13.78-3.03,16.46-5.72s4.03-7.73,4.03-15.13
		l0.34-107.27c0-5.38-0.67-9.02-2.02-10.93c-1.34-1.9-3.92-2.86-7.73-2.86l-9.41,0.34l-1.01-1.34l2.02-12.78
		c14.11,0.45,24.64,0.67,31.58,0.67l35.95-1.01C570.95,1587.89,585.17,1591.65,595.48,1599.16z M555.49,1671.62
		c18.82-7.62,28.22-19.84,28.22-36.65c0-21.74-16.02-32.62-48.05-32.62c-3.14,0-4.7,2.02-4.7,6.05c-1.8,27.35-2.69,47.53-2.69,60.53
		L555.49,1671.62z"/>
	<path fill="#FFFFFF" d="M693.58,1541.15c18.36,0.67,30.8,1.01,37.3,1.01c13.66,0,31.02-1.23,52.08-3.7l1.01,2.35l-1.34,13.11
		c-12.1,0.9-20.11,2.24-24.02,4.04c-3.92,1.8-5.88,4.71-5.88,8.74c0,7.4,14.11,59.74,42.34,157.03h3.02
		c37.18-95.94,55.78-147.5,55.78-154.68c0-8.96-7.73-13.45-23.18-13.45H813.2l-0.67-1.35l2.02-14.46
		c17.25,1.57,33.26,2.35,48.05,2.35l36.96-1.01l-2.69,15.8c-6.95,0.23-11.76,1.34-14.45,3.36s-5.27,6.28-7.73,12.78l-72.24,181.58
		l-21.5,7.4c-19.94-65.68-39.31-127.66-58.13-185.95c-4.03-12.55-14.34-18.94-30.91-19.17l-0.67-1.35L693.58,1541.15z"/>
	<path fill="#FFFFFF" d="M1051.42,1556.29c12.32,10.31,18.48,25.05,18.48,44.22c0,19.17-7.84,36.26-23.52,51.28
		c-15.68,15.02-33.49,22.53-53.42,22.53h-28.22l-0.67,32.95c0,15.25,0.84,24.77,2.52,28.58c1.68,3.81,5.76,5.72,12.26,5.72
		l18.14-1.01l0.67,1.34l-3.02,15.47c0-0.67-7.39-1.01-22.18-1.01s-28.17,0.34-40.15,1.01c-11.99,0.67-18.2,1.23-18.65,1.68
		l2.35-15.47c9.85-1.79,16.35-4.42,19.49-7.9c3.13-3.47,4.7-10.03,4.7-19.67l0.34-141.23c0-7.17-0.84-11.99-2.52-14.46
		c-1.68-2.46-4.99-3.7-9.91-3.7l-11.42,0.67l-0.67-1.34l2.35-14.8c16.35,0.67,28.78,1.01,37.3,1.01l42.34-1.34
		C1021.29,1540.82,1039.1,1545.98,1051.42,1556.29z M1041.67,1607.06c0-17.26-5.1-29.87-15.29-37.83
		c-10.2-7.95-26.16-11.94-47.88-11.94c-4.03,0-6.5,0.23-7.39,0.67c-0.9,0.45-1.46,1.8-1.68,4.04c-2.02,28.47-3.36,59.3-4.03,92.47
		l35.62,5.04C1028.12,1655.04,1041.67,1637.55,1041.67,1607.06z"/>
	<path fill="#FFFFFF" d="M1242.6,1759.72l-1.01-2.35l1.34-13.11c11.42-0.89,19.26-2.24,23.52-4.04c4.25-1.79,6.38-4.82,6.38-9.08
		c0-4.26-1.01-9.53-3.02-15.8l-11.09-36.65c-5.38-0.22-15.24-0.34-29.57-0.34c-14.34,0-28.34,0.9-42,2.69l-12.43,34.97
		c-2.02,6.05-3.02,10.42-3.02,13.11c0,9.19,6.72,13.79,20.16,13.79h19.15l0.67,1.35l-2.02,14.46c-16.35-1.57-31.92-2.35-46.7-2.35
		l-36.96,1.01l2.69-15.8c6.27-0.67,11.31-2.86,15.12-6.56c3.81-3.7,7.5-10.14,11.09-19.33l65.52-171.83l21.17-5.72h2.69
		c18.82,69.72,36.62,129.8,53.42,180.24c2.69,8.3,6.27,14.12,10.75,17.49c4.48,3.36,11.64,5.5,21.5,6.39l0.67,1.35l-2.35,13.79
		c-16.13-0.67-29.96-1.01-41.5-1.01C1275.24,1756.36,1260.52,1757.48,1242.6,1759.72z M1222.77,1664.56
		c8.06,0,18.48-0.56,31.25-1.68l-26.54-88.1h-2.35l-31.92,89.78H1222.77z"/>
	<path fill="#FFFFFF" d="M1473.09,1748.96c-16.13,6.95-36.07,10.42-59.81,10.42c-23.75,0-43.01-7.28-57.79-21.86
		c-14.78-14.57-22.18-34.91-22.18-61.03c0-26.11,9.01-47.75,27.05-64.9c18.03-17.15,41.16-25.72,69.38-25.72
		c14.33,0,30.69,2.13,49.06,6.39l1.34,2.02c-3.59,13.45-5.94,28.7-7.06,45.73l-16.8,1.01c0.45-4.48,0.67-8.85,0.67-13.11
		c0-15.69-12.55-23.54-37.63-23.54c-17.47,0-31.25,5.77-41.33,17.32c-10.08,11.55-15.12,27.97-15.12,49.26
		c0,21.3,5.32,38.56,15.96,51.78c10.64,13.23,24.92,19.84,42.84,19.84c23.07,0,37.63-13.22,43.68-39.68l16.8-1.35
		c-3.59,16.59-5.94,31.5-7.06,44.72L1473.09,1748.96z"/>
	<path fill="#FFFFFF" d="M1660.58,1757.03c-13.67-0.45-23.86-0.67-30.58-0.67c-10.53,0-24.64,0.78-42.34,2.35l-1.01-1.68l1.01-12.11
		c9.41-0.67,15.73-1.68,18.98-3.03c3.25-1.34,4.87-3.7,4.87-7.06c0-3.36-0.79-7.06-2.35-11.1l-8.06-25.89
		c-4.48-0.22-11.88-0.34-22.18-0.34c-10.31,0-21.84,0.67-34.61,2.02c-7.84,20.85-11.76,32.28-11.76,34.3
		c0,6.73,5.26,10.09,15.79,10.09h14.45l1.01,1.35l-2.02,12.78c-13.67-1.12-26.54-1.68-38.64-1.68l-30.91,0.67l2.02-13.79
		c4.92-0.67,8.85-2.41,11.76-5.21c2.91-2.8,5.82-7.57,8.74-14.29l52.75-133.5l23.86-4.37l2.35,0.34
		c15.68,56.49,29.9,102.79,42.67,138.88c2.24,6.5,5.09,11.04,8.57,13.62c3.47,2.58,9.01,4.2,16.63,4.88l0.67,1.34L1660.58,1757.03z
		 M1572.54,1683.73c7.84,0,16.01-0.45,24.53-1.35l-20.5-65.23h-2.35l-24.53,66.58H1572.54z"/>
	<path fill="#FFFFFF" d="M1747.26,1759.39c-17.03-2.02-29.01-3.03-35.95-3.03c-12.32,0-24.53,1.01-36.62,3.03l1.68-14.12
		c8.06-1.35,13.55-3.58,16.46-6.73c2.91-3.14,4.37-8.29,4.37-15.47l0.34-106.93c0-5.6-0.67-9.36-2.02-11.26
		c-1.34-1.9-3.92-2.86-7.73-2.86l-9.41,0.67l-0.67-1.68l2.02-12.78c13.21,0.45,23.29,0.67,30.24,0.67l42.34-1.01
		c27.33,0,49.22,7.12,65.69,21.35c16.46,14.24,24.7,33.91,24.7,59.01c0,25.11-9.13,46.57-27.38,64.39
		C1797.04,1750.48,1774.36,1759.39,1747.26,1759.39z M1734.49,1603.7c-3.59,0-6,0.39-7.22,1.18c-1.23,0.79-1.96,2.41-2.18,4.88
		c-2.69,63-4.03,99.48-4.03,109.45c0,9.98,2.13,16.48,6.38,19.5c4.25,3.03,12.77,4.54,25.54,4.54c18.82,0,33.54-6.16,44.18-18.49
		c10.64-12.33,15.96-29.7,15.96-52.12c0-22.41-6.72-39.51-20.16-51.28C1779.52,1609.58,1760.03,1603.7,1734.49,1603.7z"/>
	<path fill="#FFFFFF" d="M1916.27,1662.21l27.55,0.34l33.26-2.69l1.34,1.68l-4.03,17.49c-15.46-0.45-27.16-0.67-35.11-0.67
		c-7.95,0-15.85,0.56-23.69,1.68c-0.67,17.04-1.01,30.77-1.01,41.19c0,10.42,1.06,16.48,3.19,18.16c2.13,1.68,9.18,2.52,21.17,2.52
		c11.98,0,21.05-0.72,27.22-2.19c6.16-1.46,10.58-4.2,13.27-8.24c2.69-4.04,4.81-11.1,6.38-21.18l14.78-1.35l1.34,1.68
		c-3.36,14.8-5.83,30.04-7.39,45.73l-2.02,1.68c-37.19-1.12-62.16-1.68-74.93-1.68c-18.82,0-35.4,0.89-49.73,2.69l1.68-14.12
		c8.28-0.89,13.89-2.91,16.8-6.05c2.91-3.14,4.37-8.52,4.37-16.14l0.34-106.6c0-5.6-0.67-9.36-2.02-11.26
		c-1.34-1.9-4.03-2.86-8.06-2.86l-9.07,0.34l-0.67-1.34l2.02-12.78c15.9,0.45,36.12,0.67,60.65,0.67c24.53,0,45.75-1.01,63.67-3.03
		l1.01,1.68c-3.14,13.9-5.27,28.92-6.38,45.06l-16.13,1.35c0.45-4.93,0.67-8.63,0.67-11.1c0-8.29-2.13-13.39-6.38-15.3
		c-4.26-1.9-13.05-2.86-26.38-2.86c-13.33,0-20.89,0.5-22.68,1.51c-1.79,1.01-2.8,3.76-3.02,8.24L1916.27,1662.21z"/>
	<path fill="#FFFFFF" d="M2236.14,1757.03c-10.98-0.45-18.76-0.67-23.35-0.67c-4.59,0-16.29,0.67-35.11,2.02l1.34-13.79
		c5.82-0.67,9.96-2.02,12.43-4.04c2.46-2.02,3.7-5.04,3.7-9.08l-8.4-105.25h-1.68c-13.22,33.85-30.02,78.13-50.4,132.82l-9.74,2.02
		c-22.63-61.42-39.54-106.37-50.74-134.84h-1.68c-5.6,67.92-8.4,104.36-8.4,109.29c0,4.93,2.91,7.4,8.74,7.4h10.75l0.67,1.01
		l-2.35,13.45c-12.77-0.67-22.29-1.01-28.56-1.01l-24.53,2.02l1.34-13.79c5.82-0.67,9.96-2.41,12.43-5.21
		c2.46-2.8,4.14-7.68,5.04-14.63c7.84-62.77,11.76-99.64,11.76-110.63c0-4.48-1.74-7.79-5.21-9.92c-3.48-2.13-9.47-3.42-17.98-3.87
		l-1.01-1.68l2.35-11.1c14.78,0.9,25.2,1.35,31.25,1.35l21.84-1.01c14.78,46.18,29.23,87.09,43.34,122.74h1.68
		c13.66-34.97,28.56-75.66,44.69-122.06h5.04l17.13,0.34l29.23-1.68l0.67,1.01l-1.68,11.77c-7.84,0.9-13.33,2.41-16.46,4.54
		c-3.14,2.13-4.71,5.44-4.71,9.92c0,15.47,2.35,50.1,7.06,103.9c1.12,10.09,2.57,16.7,4.37,19.84c1.79,3.14,4.81,4.71,9.07,4.71
		l7.73-0.34l0.67,1.01L2236.14,1757.03z"/>
	<path fill="#FFFFFF" d="M2268.39,1588.23l34.27,0.67l33.6-2.35l-1.35,13.79c-7.39,0.9-12.32,2.3-14.78,4.2
		c-2.47,1.91-3.92,5.44-4.37,10.59c-2.47,43.94-3.7,80.59-3.7,109.96c0,7.18,0.78,12,2.35,14.46c1.56,2.47,4.7,3.7,9.41,3.7
		l13.78-1.01l0.67,1.35l-2.35,13.45c-16.36-0.45-27.78-0.67-34.27-0.67c-11.88,0-24.08,1.01-36.62,3.03l1.68-13.79
		c8.51-1.57,14.22-3.87,17.14-6.89c2.91-3.03,4.37-8.24,4.37-15.64l0.34-106.93c0-5.6-0.67-9.36-2.02-11.26
		c-1.34-1.9-4.03-2.86-8.06-2.86l-11.09,0.34l-0.67-1.34L2268.39,1588.23z"/>
	<path fill="#FFFFFF" d="M2501.23,1748.96c-16.13,6.95-36.07,10.42-59.81,10.42c-23.75,0-43.01-7.28-57.79-21.86
		c-14.78-14.57-22.18-34.91-22.18-61.03c0-26.11,9.01-47.75,27.05-64.9c18.03-17.15,41.16-25.72,69.38-25.72
		c14.33,0,30.69,2.13,49.06,6.39l1.34,2.02c-3.59,13.45-5.94,28.7-7.06,45.73l-16.8,1.01c0.45-4.48,0.67-8.85,0.67-13.11
		c0-15.69-12.55-23.54-37.63-23.54c-17.47,0-31.25,5.77-41.33,17.32c-10.08,11.55-15.12,27.97-15.12,49.26
		c0,21.3,5.32,38.56,15.96,51.78c10.64,13.23,24.92,19.84,42.84,19.84c23.07,0,37.63-13.22,43.68-39.68l16.8-1.35
		c-3.59,16.59-5.94,31.5-7.06,44.72L2501.23,1748.96z"/>
</g>
<g>
	<rect fill="#FFFFFF" width="2688" height="74.73"/>
</g>
<g>
	<rect y="1326.37" fill="#FFFFFF" width="2688" height="74.72"/>
</g>
</svg>
